<svg xmlns="http://www.w3.org/2000/svg" xmlns:xlink="http://www.w3.org/1999/xlink" width="0" height="0" style="position:absolute">

<symbol id="calender" viewBox="0 0 24 24" stroke="currentColor" stroke-width="2" fill="none" stroke-linecap="round" stroke-linejoin="round">
  <rect x="3" y="4" width="18" height="18" rx="2" ry="2"></rect><line x1="16" y1="2" x2="16" y2="6"></line><line x1="8" y1="2" x2="8" y2="6"></line><line x1="3" y1="10" x2="21" y2="10"></line>
</symbol>

<symbol id="chevron" viewBox="0 0 80 32" fill="currentColor">
  <path d="M50.286 5.486l-5.867-5.486-19.276 18.024-19.276-18.024-5.867 5.486 25.143 23.51z"></path>
</symbol>

<symbol id="check-circle" viewBox="0 0 24 24" stroke="currentColor" stroke-width="2" fill="none" stroke-linecap="round" stroke-linejoin="round">
  <path d="M22 11.08V12a10 10 0 1 1-5.93-9.14"></path><polyline points="22 4 12 14.01 9 11.01"></polyline>
</symbol>

<symbol id="check-square" viewBox="0 0 24 24" stroke="currentColor" stroke-width="2" fill="none" stroke-linecap="round" stroke-linejoin="round">
  <polyline points="9 11 12 14 22 4"></polyline><path d="M21 12v7a2 2 0 0 1-2 2H5a2 2 0 0 1-2-2V5a2 2 0 0 1 2-2h11"></path>
</symbol>

<symbol id="close" viewBox="0 0 24 24" fill="currentColor">
  <path d="M19 6.41L17.59 5 12 10.59 6.41 5 5 6.41 10.59 12 5 17.59 6.41 19 12 13.41 17.59 19 19 17.59 13.41 12z"/>
</symbol>

<symbol id="codepen" viewBox="0 0 24 24" stroke="currentColor" stroke-width="2" fill="none" stroke-linecap="round" stroke-linejoin="round">
  <polygon points="12 2 22 8.5 22 15.5 12 22 2 15.5 2 8.5 12 2"></polygon><line x1="12" y1="22" x2="12" y2="15.5"></line><polyline points="22 8.5 12 15.5 2 8.5"></polyline><polyline points="2 15.5 12 8.5 22 15.5"></polyline><line x1="12" y1="2" x2="12" y2="8.5"></line>
</symbol>

<symbol id="coffee" viewBox="0 0 24 24" stroke="currentColor" stroke-width="2" fill="none" stroke-linecap="round" stroke-linejoin="round">
  <path d="M18 8h1a4 4 0 0 1 0 8h-1"></path><path d="M2 8h16v9a4 4 0 0 1-4 4H6a4 4 0 0 1-4-4V8z"></path><line x1="6" y1="1" x2="6" y2="4"></line><line x1="10" y1="1" x2="10" y2="4"></line><line x1="14" y1="1" x2="14" y2="4"></line>
</symbol>

<symbol id="comment" viewBox="0 0 30 30" fill="currentColor">
  <path d="M30 10.9c0-2-.5-3.8-1.6-5.5s-2.5-3-4.3-4c-1.8-1-3.8-1.5-5.9-1.5s-4.1.5-5.9 1.5-3.2 2.3-4.3 4-1.6 3.5-1.6 5.5.6 3.8 1.6 5.5 2.5 3 4.3 4c1.8 1 3.8 1.5 5.9 1.5 1 0 1.9-.1 2.9-.3 1.4 1.3 3 2.2 4.6 2.7.4.1.9.2 1.4.3h.1c.1 0 .2-.1.4-.2.1-.1.2-.3.2-.4v-.6l-.1-.1c0-.1-.1-.1-.1-.1l-.1-.1V23c-.1-.1-.2-.3-.4-.5-.2-.3-.4-.5-.5-.6s-.2-.3-.4-.6c-.1-.3-.3-.6-.4-.8-.1-.2-.2-.5-.3-1 1.4-1 2.5-2.3 3.2-3.7.9-1.6 1.3-3.2 1.3-4.9zM19.7 24.4c-.6.1-1.1.1-1.5.1-1.8 0-3.5-.3-5.2-1-1.6-.6-3.1-1.6-4.4-2.7-1.4-1.3-2.5-2.8-3.2-4.5s-1.1-3.5-1.1-5.4c0-1.1.1-2.2.4-3.2-1.4 1-2.6 2.3-3.4 3.8S0 14.6 0 16.3c0 1.7.4 3.3 1.2 4.8.8 1.5 1.9 2.7 3.2 3.7-.1.4-.2.7-.3 1-.1.3-.3.5-.4.8-.2.3-.3.5-.4.6s-.2.4-.4.6c-.2.3-.3.5-.4.5l-.1.1c0 .1-.1.1-.1.1s0 .1-.1.1c0 .1 0 .1-.1.1v.5c0 .2.1.4.2.5.2.3.3.3.5.3.5-.1 1-.2 1.4-.3 1.7-.6 3.2-1.5 4.7-2.7 1 .2 2 .3 2.9.3 3-.1 5.6-1 7.9-2.9z"/>
</symbol>

<symbol id="deviantart" viewBox="0 0 1792 1792" fill="currentColor">
  <path d="M1408 303l-303 582 24 31h279v415h-507l-44 30-142 273-30 30h-301v-303l303-583-24-30h-279v-415h507l44-30 142-273 30-30h301v303z"/>
</symbol>

<svg id="download" viewBox="0 0 24 24" stroke="currentColor" stroke-width="2" fill="none" stroke-linecap="round" stroke-linejoin="round">
  <path d="M21 15v4a2 2 0 0 1-2 2H5a2 2 0 0 1-2-2v-4"></path><polyline points="7 10 12 15 17 10"></polyline><line x1="12" y1="15" x2="12" y2="3"></line>
</svg>

<symbol id="discord" viewBox="0 0 448 512" fill="currentColor">
  <path d="M297.216 243.2c0 15.616-11.52 28.416-26.112 28.416-14.336 0-26.112-12.8-26.112-28.416s11.52-28.416 26.112-28.416c14.592 0 26.112 12.8 26.112 28.416zm-119.552-28.416c-14.592 0-26.112 12.8-26.112 28.416s11.776 28.416 26.112 28.416c14.592 0 26.112-12.8 26.112-28.416.256-15.616-11.52-28.416-26.112-28.416zM448 52.736V512c-64.494-56.994-43.868-38.128-118.784-107.776l13.568 47.36H52.48C23.552 451.584 0 428.032 0 398.848V52.736C0 23.552 23.552 0 52.48 0h343.04C424.448 0 448 23.552 448 52.736zm-72.96 242.688c0-82.432-36.864-149.248-36.864-149.248-36.864-27.648-71.936-26.88-71.936-26.88l-3.584 4.096c43.52 13.312 63.744 32.512 63.744 32.512-60.811-33.329-132.244-33.335-191.232-7.424-9.472 4.352-15.104 7.424-15.104 7.424s21.248-20.224 67.328-33.536l-2.56-3.072s-35.072-.768-71.936 26.88c0 0-36.864 66.816-36.864 149.248 0 0 21.504 37.12 78.08 38.912 0 0 9.472-11.52 17.152-21.248-32.512-9.728-44.8-30.208-44.8-30.208 3.766 2.636 9.976 6.053 10.496 6.4 43.21 24.198 104.588 32.126 159.744 8.96 8.96-3.328 18.944-8.192 29.44-15.104 0 0-12.8 20.992-46.336 30.464 7.68 9.728 16.896 20.736 16.896 20.736 56.576-1.792 78.336-38.912 78.336-38.912z"/>
</symbol>

<symbol id="dribbble" viewBox="0 0 1792 1792" fill="currentColor">
  <path d="M1152 1500q-42-241-140-498h-2l-2 1q-16 6-43 16.5t-101 49-137 82-131 114.5-103 148l-15-11q184 150 418 150 132 0 256-52zm-185-607q-21-49-53-111-311 93-673 93-1 7-1 21 0 124 44 236.5t124 201.5q50-89 123.5-166.5t142.5-124.5 130.5-81 99.5-48l37-13q4-1 13-3.5t13-4.5zm-107-212q-120-213-244-378-138 65-234 186t-128 272q302 0 606-80zm684 319q-210-60-409-29 87 239 128 469 111-75 185-189.5t96-250.5zm-805-741q-1 0-2 1 1-1 2-1zm590 145q-185-164-433-164-76 0-155 19 131 170 246 382 69-26 130-60.5t96.5-61.5 65.5-57 37.5-40.5zm223 485q-3-232-149-410l-1 1q-9 12-19 24.5t-43.5 44.5-71 60.5-100 65-131.5 64.5q25 53 44 95 2 5 6.5 17t7.5 17q36-5 74.5-7t73.5-2 69 1.5 64 4 56.5 5.5 48 6.5 36.5 6 25 4.5zm112 7q0 209-103 385.5t-279.5 279.5-385.5 103-385.5-103-279.5-279.5-103-385.5 103-385.5 279.5-279.5 385.5-103 385.5 103 279.5 279.5 103 385.5z"/>
</symbol>

<symbol id="email" viewBox="0 0 30 30" fill="currentColor">
  <path d="M4.1 25.3c-1.2 0-2.1-.4-2.9-1.2-.8-.8-1.2-1.8-1.2-3V8.9c0-1.2.4-2.2 1.2-3C2 5.1 3 4.7 4.1 4.7h21.8c1.2 0 2.1.4 2.9 1.3.8.8 1.2 1.8 1.2 3v12.2c0 1.2-.4 2.2-1.2 3-.8.8-1.8 1.2-2.9 1.2H4.1zm-1.3-4c0 .3.2.5.4.7.3.3.6.4.9.4h21.8c.4 0 .7-.2.9-.4.2-.2.3-.4.4-.7l-6.6-5.1-3.7 2.8c-.6.5-1.2.7-1.9.7s-1.4-.2-2-.7l-3.7-2.8-6.5 5.1zm24.4-2.4v-7.8l-5 3.9 5 3.9zm-24.4 0l5-3.9-5-3.9v7.8zm11.4-1.4c.2.2.5.3.8.3s.6-.1.8-.3l3.7-2.9.8-.6 6.9-5.4c0-.3-.2-.5-.4-.7-.3-.3-.6-.4-.9-.4H4c-.3 0-.6.1-.9.4-.1.3-.2.5-.3.8l11.4 8.8z"/>
</symbol>

<symbol id="enquiry" viewBox="0 0 24 24" fill="currentColor">
  <path d="M20 4H4c-1.1 0-1.99.9-1.99 2L2 18c0 1.1.9 2 2 2h16c1.1 0 2-.9 2-2V6c0-1.1-.9-2-2-2zm0 4l-8 5-8-5V6l8 5 8-5v2z"/>
</symbol>

<symbol id="etsy" viewBox="0 0 1792 1792" fill="currentColor">
  <path d="M646 183v655q103 1 191.5-1.5t125.5-5.5l37-3q68-2 90.5-24.5t39.5-94.5l33-142h103l-14 322 7 319h-103l-29-127q-15-68-45-93t-84-26q-87-8-352-8v556q0 78 43.5 115.5t133.5 37.5h357q35 0 59.5-2t55-7.5 54-18 48.5-32 46-50.5 39-73l93-216h89q-6 37-31.5 252t-30.5 276q-146-5-263.5-8t-162.5-4h-672l-376 12v-102l127-25q67-13 91.5-37t25.5-79l8-643q3-402-8-645-2-61-25.5-84t-91.5-36l-127-24v-102l376 12h702q139 0 374-27-6 68-14 194.5t-12 219.5l-5 92h-93l-32-124q-31-121-74-179.5t-113-58.5h-548q-28 0-35.5 8.5t-7.5 30.5z"/>
</symbol>

<symbol id="external" viewBox="0 0 24 24" stroke="currentColor" stroke-width="2" fill="none" stroke-linecap="round" stroke-linejoin="round">
  <path d="M18 13v6a2 2 0 0 1-2 2H5a2 2 0 0 1-2-2V8a2 2 0 0 1 2-2h6"></path><polyline points="15 3 21 3 21 9"></polyline><line x1="10" y1="14" x2="21" y2="3"></line>
</symbol>

<symbol id="facebook" viewBox="0 0 30 30" fill="currentColor">
  <path d="M22 0h-4.8c-2.9 0-6 1.2-6 5.3v4.4H7.9v5.2h3.4V30h6.2V14.8h4.1l.4-5.2h-4.6v-3c0-1.6 1.7-1.5 1.8-1.5H22V0z"/>
</symbol>

<symbol id="figma" viewBox="0 0 24 24" stroke="currentColor" stroke-width="2" fill="none" stroke-linecap="round" stroke-linejoin="round">
  <path d="M5 5.5A3.5 3.5 0 0 1 8.5 2H12v7H8.5A3.5 3.5 0 0 1 5 5.5z"></path><path d="M12 2h3.5a3.5 3.5 0 1 1 0 7H12V2z"></path><path d="M12 12.5a3.5 3.5 0 1 1 7 0 3.5 3.5 0 1 1-7 0z"></path><path d="M5 19.5A3.5 3.5 0 0 1 8.5 16H12v3.5a3.5 3.5 0 1 1-7 0z"></path><path d="M5 12.5A3.5 3.5 0 0 1 8.5 9H12v7H8.5A3.5 3.5 0 0 1 5 12.5z"></path>
</symbol>

<symbol id="file" viewBox="0 0 24 24" stroke="currentColor" stroke-width="2" fill="none" stroke-linecap="round" stroke-linejoin="round">
  <path d="M14 2H6a2 2 0 0 0-2 2v16a2 2 0 0 0 2 2h12a2 2 0 0 0 2-2V8z"></path><polyline points="14 2 14 8 20 8"></polyline><line x1="16" y1="13" x2="8" y2="13"></line><line x1="16" y1="17" x2="8" y2="17"></line><polyline points="10 9 9 9 8 9"></polyline>
</symbol>

<symbol id="filter" viewBox="0 0 24 24" stroke="currentColor" stroke-width="2" fill="none" stroke-linecap="round" stroke-linejoin="round">
  <polygon points="22 3 2 3 10 12.46 10 19 14 21 14 12.46 22 3"></polygon>
</symbol>

<symbol id="gift" viewBox="0 0 24 24" stroke="currentColor" stroke-width="2" fill="none" stroke-linecap="round" stroke-linejoin="round">
  <polyline points="20 12 20 22 4 22 4 12"></polyline><rect x="2" y="7" width="20" height="5"></rect><line x1="12" y1="22" x2="12" y2="7"></line><path d="M12 7H7.5a2.5 2.5 0 0 1 0-5C11 2 12 7 12 7z"></path><path d="M12 7h4.5a2.5 2.5 0 0 0 0-5C13 2 12 7 12 7z"></path>
</symbol>

<symbol id="github" viewBox="0 0 1792 1792" fill="currentColor">
  <path d="M896 128q209 0 385.5 103t279.5 279.5 103 385.5q0 251-146.5 451.5t-378.5 277.5q-27 5-40-7t-13-30q0-3 .5-76.5t.5-134.5q0-97-52-142 57-6 102.5-18t94-39 81-66.5 53-105 20.5-150.5q0-119-79-206 37-91-8-204-28-9-81 11t-92 44l-38 24q-93-26-192-26t-192 26q-16-11-42.5-27t-83.5-38.5-85-13.5q-45 113-8 204-79 87-79 206 0 85 20.5 150t52.5 105 80.5 67 94 39 102.5 18q-39 36-49 103-21 10-45 15t-57 5-65.5-21.5-55.5-62.5q-19-32-48.5-52t-49.5-24l-20-3q-21 0-29 4.5t-5 11.5 9 14 13 12l7 5q22 10 43.5 38t31.5 51l10 23q13 38 44 61.5t67 30 69.5 7 55.5-3.5l23-4q0 38 .5 88.5t.5 54.5q0 18-13 30t-40 7q-232-77-378.5-277.5t-146.5-451.5q0-209 103-385.5t279.5-279.5 385.5-103zm-477 1103q3-7-7-12-10-3-13 2-3 7 7 12 9 6 13-2zm31 34q7-5-2-16-10-9-16-3-7 5 2 16 10 10 16 3zm30 45q9-7 0-19-8-13-17-6-9 5 0 18t17 7zm42 42q8-8-4-19-12-12-20-3-9 8 4 19 12 12 20 3zm57 25q3-11-13-16-15-4-19 7t13 15q15 6 19-6zm63 5q0-13-17-11-16 0-16 11 0 13 17 11 16 0 16-11zm58-10q-2-11-18-9-16 3-14 15t18 8 14-14z"/>
</symbol>

<symbol id="gitlab" viewBox="0 0 1792 1792" fill="currentColor">
  <path d="M104 706l792 1015-868-630q-18-13-25-34.5t0-42.5l101-308zm462 0h660l-330 1015zm-198-612l198 612h-462l198-612q8-23 33-23t33 23zm1320 612l101 308q7 21 0 42.5t-25 34.5l-868 630 792-1015zm0 0h-462l198-612q8-23 33-23t33 23z"/>
</symbol>

<symbol id="instagram" viewBox="0 0 24 24" fill="none" stroke="currentColor" stroke-width="2" stroke-linecap="round" stroke-linejoin="round">
  <rect x="2" y="2" width="20" height="20" rx="5" ry="5"></rect><path d="M16 11.37A4 4 0 1 1 12.63 8 4 4 0 0 1 16 11.37z"></path><line x1="17.5" y1="6.5" x2="17.51" y2="6.5"></line>
</symbol>

<symbol id="linkedin" viewBox="0 0 30 30" fill="currentColor">
  <path d="M3.2.3C1.3.3 0 1.6 0 3.4c0 1.7 1.3 3.1 3.2 3.1 2 0 3.3-1.4 3.3-3.1C6.5 1.6 5.2.3 3.2.3zm-3 29.4h6.1v-21H.2v21zM22.9 9c-2 0-4-.4-6.1 2.9h-.1l-.1-3.2h-5.4c.1 1.7.1 4.3.1 6.8v14.2h6.1V17.6c0-.6.1-1.1.2-1.5.4-1.1 1.4-2.3 3.1-2.3 2.2 0 3.1 1.7 3.1 4.3v11.7H30V17.3c0-5.9-3-8.3-7.1-8.3z"/>
</symbol>

<symbol id="menu" viewBox="0 0 24 24" fill="currentColor">
  <path d="M3 18h18v-2H3v2zm0-5h18v-2H3v2zm0-7v2h18V6H3z"/>
</symbol>

<symbol id="moon" viewBox="0 0 24 24" fill="currentColor" stroke="currentColor">
  <path d="M21 12.79A9 9 0 1 1 11.21 3 7 7 0 0 0 21 12.79z"></path>
</symbol>

<symbol id="phone" viewBox="0 0 24 24" fill="currentColor">
  <path d="M6.62 10.79c1.44 2.83 3.76 5.14 6.59 6.59l2.2-2.2c.27-.27.67-.36 1.02-.24 1.12.37 2.33.57 3.57.57.55 0 1 .45 1 1V20c0 .55-.45 1-1 1-9.39 0-17-7.61-17-17 0-.55.45-1 1-1h3.5c.55 0 1 .45 1 1 0 1.25.2 2.45.57 3.57.11.35.03.74-.25 1.02l-2.2 2.2z"/>
</symbol>

<symbol id="play" viewBox="0 0 24 24" fill="currentColor">
  <circle cx="12" cy="12" r="10"></circle><polygon points="10 8 16 12 10 16 10 8"></polygon>
</symbol>

<symbol id="search" viewBox="0 0 24 24" fill="currentColor" stroke="currentColor">
  <path d="M15.5 14h-.79l-.28-.27C15.41 12.59 16 11.11 16 9.5 16 5.91 13.09 3 9.5 3S3 5.91 3 9.5 5.91 16 9.5 16c1.61 0 3.09-.59 4.23-1.57l.27.28v.79l5 4.99L20.49 19l-4.99-5zm-6 0C7.01 14 5 11.99 5 9.5S7.01 5 9.5 5 14 7.01 14 9.5 11.99 14 9.5 14z"/>
</symbol>

<symbol id="share" viewBox="0 0 30 30" fill="currentColor">
  <path d="M2.1 28.3c.1.1.1.2.2.4s.1.4.2.6c.1.2.2.3.2.4.2.2.3.3.5.3s.3-.1.4-.2c.1-.1.2-.3.2-.5v-.5c0-.2-.1-.3-.1-.4-.1-.9-.1-1.6-.1-2.3 0-1.3.1-2.4.3-3.4.2-1 .5-1.9.8-2.6.3-.7.8-1.4 1.3-1.9s1.1-1 1.8-1.3 1.4-.6 2.2-.8c.9-.2 1.7-.3 2.6-.4.9-.1 1.8-.1 2.9-.1h3.8v4.8c0 .3.1.6.3.8.2.2.5.4.8.4.3 0 .5-.1.8-.4l8.5-9.6c.2-.2.3-.5.3-.8 0-.3-.1-.6-.3-.8L21.2.4c-.3-.3-.5-.4-.8-.4-.3 0-.6.1-.8.3s-.3.5-.3.8V6h-3.8C7.5 6 2.7 8.5.9 13.6c-.6 1.6-.9 3.7-.9 6.2 0 2.1.7 4.9 2.1 8.5z"/>
</symbol>

<symbol id="subscribe" viewBox="0 0 30 30" fill="currentColor">
  <path d="M1.1 23.6c-.7.7-1 1.6-1.1 2.6 0 1 .3 1.9 1.1 2.6.8.8 1.6 1.2 2.6 1.2s1.9-.4 2.7-1.1c.8-.7 1.1-1.6 1.1-2.6s-.4-1.9-1.1-2.6c-.7-.7-1.6-1.1-2.7-1.1-1.1-.1-1.9.3-2.6 1zm0-22.5C.4 1.9 0 2.7 0 3.7s.4 1.9 1.1 2.6 1.6 1.1 2.7 1.1c5.2 0 9.6 1.8 13.3 5.5s5.5 8.1 5.5 13.3c0 1 .3 1.9 1.1 2.6.7.8 1.6 1.1 2.7 1.1 1 0 1.9-.4 2.7-1.1.7-.7 1.1-1.6 1.1-2.6 0-4.7-1.2-9.1-3.5-13.1s-5.6-7.2-9.6-9.6S8.5 0 3.7 0c-1 0-1.9.4-2.6 1.1zm0 11.3C.4 13.1 0 14 0 15s.4 1.9 1.1 2.6c.7.7 1.6 1.1 2.7 1.1 2 0 3.8.8 5.3 2.2s2.2 3.2 2.2 5.3c0 1 .4 1.9 1.1 2.6.6.9 1.5 1.2 2.6 1.2s2-.4 2.7-1.1c.7-.7 1.1-1.6 1.1-2.6 0-4.1-1.4-7.7-4.4-10.6s-6.5-4.4-10.6-4.4c-1.1 0-2 .4-2.7 1.1z"/>
</symbol>

<symbol id="sun" viewBox="0 0 24 24" fill="currentColor" stroke="currentColor" stroke-width="3" stroke-linecap="round" stroke-linejoin="round">
  <circle cx="12" cy="12" r="4"></circle><line x1="12" y1="1" x2="12" y2="3"></line><line x1="12" y1="21" x2="12" y2="23"></line><line x1="4.22" y1="4.22" x2="5.64" y2="5.64"></line><line x1="18.36" y1="18.36" x2="19.78" y2="19.78"></line><line x1="1" y1="12" x2="3" y2="12"></line><line x1="21" y1="12" x2="23" y2="12"></line><line x1="4.22" y1="19.78" x2="5.64" y2="18.36"></line><line x1="18.36" y1="5.64" x2="19.78" y2="4.22"></line>
</symbol>

<symbol id="tag" viewBox="0 0 24 24" fill="none" stroke="currentColor" stroke-width="2">
  <path d="M20.59 13.41l-7.17 7.17a2 2 0 0 1-2.83 0L2 12V2h10l8.59 8.59a2 2 0 0 1 0 2.82z"></path><line x1="7" y1="7" x2="7.01" y2="7"></line>
</symbol>

<symbol id="twitch" viewBox="0 0 1792 1792" fill="currentColor">
  <path d="M896 434v434h-145v-434h145zm398 0v434h-145v-434h145zm0 760l253-254v-795h-1194v1049h326v217l217-217h398zm398-1194v1013l-434 434h-326l-217 217h-217v-217h-398v-1158l109-289h1483z"/>
</symbol>

<symbol id="twitter" viewBox="0 0 30 30" fill="currentColor">
  <path d="M30 5.7c-1.1.5-2.3.8-3.5 1 1.3-.8 2.2-2 2.7-3.4-1.2.7-2.5 1.2-3.9 1.5-1.1-1.2-2.7-1.9-4.5-1.9-3.4 0-6.2 2.8-6.2 6.2 0 .5.1 1 .2 1.4-5.1-.4-9.7-2.8-12.7-6.6-.5.9-.8 2-.8 3.1 0 2.1 1.1 4 2.7 5.1-1 0-2-.3-2.8-.8v.1c0 3 2.1 5.5 4.9 6-.5.1-1.1.2-1.6.2-.4 0-.8 0-1.2-.1.8 2.4 3.1 4.2 5.7 4.3-2.1 1.7-4.8 2.6-7.6 2.6-.5 0-1 0-1.5-.1 2.7 1.7 6 2.8 9.4 2.8 11.3 0 17.5-9.4 17.5-17.5v-.8c1.3-.8 2.4-1.9 3.2-3.1z"/>
</symbol>

<symbol id="video" viewBox="0 0 24 24" stroke="currentColor" stroke-width="2" fill="none" stroke-linecap="round" stroke-linejoin="round">
  <rect x="2" y="2" width="20" height="20" rx="2.18" ry="2.18"></rect><line x1="7" y1="2" x2="7" y2="22"></line><line x1="17" y1="2" x2="17" y2="22"></line><line x1="2" y1="12" x2="22" y2="12"></line><line x1="2" y1="7" x2="7" y2="7"></line><line x1="2" y1="17" x2="7" y2="17"></line><line x1="17" y1="17" x2="22" y2="17"></line><line x1="17" y1="7" x2="22" y2="7"></line>
</symbol>

<symbol id="youtube" viewBox="0 0 30 30" fill="currentColor">
  <path d="M29.7 8.8s-.1-4.4-4.6-4.5c-4.5-.2-9.6-.3-9.6-.3h-.9s-5.2.1-9.7.3C.3 4.5.3 8.6.3 8.6s-.6 6.6-.1 11.5c.4 3.7 1.2 5.2 5.5 5.4 4.3.2 8.8.5 8.8.5h.9s4.5-.2 8.8-.4c4.3-.2 5.1-1.5 5.5-5.2.6-5 0-11.6 0-11.6zM12 19.2v-8.5l8.1 4.3-8.1 4.2z"/>
</symbol>

</svg>
