<svg xmlns="http://www.w3.org/2000/svg" xmlns:xlink="http://www.w3.org/1999/xlink" width="0" height="0" style="position:absolute">

<symbol id="icon-calender" viewBox="0 0 30 30">
  <path d="M30 27.9V6.4c0-.6-.2-1.1-.7-1.5-.5-.4-1-.6-1.6-.6h-2.3V2.7c0-.7-.3-1.3-.8-1.9S23.3 0 22.5 0h-1.2c-.8 0-1.5.3-2 .8s-.8 1.1-.8 1.9v1.6h-6.9V2.7c0-.7-.3-1.3-.9-1.9S9.4 0 8.7 0H7.5c-.8 0-1.5.3-2 .8s-.9 1.1-.9 1.9v1.6H2.3c-.6 0-1.2.2-1.6.6-.4.4-.7.9-.7 1.5v21.4c0 .6.2 1.1.7 1.5s1 .6 1.6.6h25.4c.6 0 1.2-.2 1.6-.6s.7-.8.7-1.4zm-2.3 0h-5.2V23h5.2v4.9zm0-5.9h-5.2v-5.3h5.2V22zm0-6.5h-5.2v-4.8h5.2v4.8zm-4.6-8c0 .1-.1.3-.2.4s-.3.2-.4.1h-1.2c-.2 0-.3 0-.4-.1-.1-.1-.2-.2-.2-.4V2.7c0-.1.1-.3.2-.4s.3-.2.4-.2h1.2c.2 0 .3.1.4.2.1.1.2.2.2.4v4.8zm-1.8 20.4h-5.7V23h5.7v4.9zm0-5.9h-5.7v-5.3h5.7V22zm0-6.5h-5.7v-4.8h5.7v4.8zm-6.9 12.4H8.7V23h5.8v4.9zm0-5.9H8.7v-5.3h5.8V22zm0-6.5H8.7v-4.8h5.8v4.8zm-5.2-8c0 .1-.1.3-.2.4 0 .1-.2.2-.3.1H7.5c-.1 0-.3 0-.4-.1-.1-.1-.2-.2-.2-.4V2.7c0-.1.1-.3.2-.4.1-.1.2-.2.4-.2h1.1c.2 0 .3.1.4.2.1.1.2.2.2.4v4.8zM7.5 27.9H2.3V23h5.2v4.9zm0-5.9H2.3v-5.3h5.2V22zm0-6.5H2.3v-4.8h5.2v4.8z"/>
</symbol>

<symbol id="icon-chevron" viewBox="0 0 80 32">
  <path d="M50.286 5.486l-5.867-5.486-19.276 18.024-19.276-18.024-5.867 5.486 25.143 23.51z"></path>
</symbol>

<symbol id="icon-close" viewBox="0 0 24 24">
  <path d="M19 6.41L17.59 5 12 10.59 6.41 5 5 6.41 10.59 12 5 17.59 6.41 19 12 13.41 17.59 19 19 17.59 13.41 12z"/>
</symbol>

<symbol id="icon-comment" viewBox="0 0 30 30">
  <path d="M30 10.9c0-2-.5-3.8-1.6-5.5s-2.5-3-4.3-4c-1.8-1-3.8-1.5-5.9-1.5s-4.1.5-5.9 1.5-3.2 2.3-4.3 4-1.6 3.5-1.6 5.5.6 3.8 1.6 5.5 2.5 3 4.3 4c1.8 1 3.8 1.5 5.9 1.5 1 0 1.9-.1 2.9-.3 1.4 1.3 3 2.2 4.6 2.7.4.1.9.2 1.4.3h.1c.1 0 .2-.1.4-.2.1-.1.2-.3.2-.4v-.6l-.1-.1c0-.1-.1-.1-.1-.1l-.1-.1V23c-.1-.1-.2-.3-.4-.5-.2-.3-.4-.5-.5-.6s-.2-.3-.4-.6c-.1-.3-.3-.6-.4-.8-.1-.2-.2-.5-.3-1 1.4-1 2.5-2.3 3.2-3.7.9-1.6 1.3-3.2 1.3-4.9zM19.7 24.4c-.6.1-1.1.1-1.5.1-1.8 0-3.5-.3-5.2-1-1.6-.6-3.1-1.6-4.4-2.7-1.4-1.3-2.5-2.8-3.2-4.5s-1.1-3.5-1.1-5.4c0-1.1.1-2.2.4-3.2-1.4 1-2.6 2.3-3.4 3.8S0 14.6 0 16.3c0 1.7.4 3.3 1.2 4.8.8 1.5 1.9 2.7 3.2 3.7-.1.4-.2.7-.3 1-.1.3-.3.5-.4.8-.2.3-.3.5-.4.6s-.2.4-.4.6c-.2.3-.3.5-.4.5l-.1.1c0 .1-.1.1-.1.1s0 .1-.1.1c0 .1 0 .1-.1.1v.5c0 .2.1.4.2.5.2.3.3.3.5.3.5-.1 1-.2 1.4-.3 1.7-.6 3.2-1.5 4.7-2.7 1 .2 2 .3 2.9.3 3-.1 5.6-1 7.9-2.9z"/>
</symbol>

<symbol id="icon-email" viewBox="0 0 30 30">
  <path d="M4.1 25.3c-1.2 0-2.1-.4-2.9-1.2-.8-.8-1.2-1.8-1.2-3V8.9c0-1.2.4-2.2 1.2-3C2 5.1 3 4.7 4.1 4.7h21.8c1.2 0 2.1.4 2.9 1.3.8.8 1.2 1.8 1.2 3v12.2c0 1.2-.4 2.2-1.2 3-.8.8-1.8 1.2-2.9 1.2H4.1zm-1.3-4c0 .3.2.5.4.7.3.3.6.4.9.4h21.8c.4 0 .7-.2.9-.4.2-.2.3-.4.4-.7l-6.6-5.1-3.7 2.8c-.6.5-1.2.7-1.9.7s-1.4-.2-2-.7l-3.7-2.8-6.5 5.1zm24.4-2.4v-7.8l-5 3.9 5 3.9zm-24.4 0l5-3.9-5-3.9v7.8zm11.4-1.4c.2.2.5.3.8.3s.6-.1.8-.3l3.7-2.9.8-.6 6.9-5.4c0-.3-.2-.5-.4-.7-.3-.3-.6-.4-.9-.4H4c-.3 0-.6.1-.9.4-.1.3-.2.5-.3.8l11.4 8.8z"/>
</symbol>

<symbol id="icon-enquiry" viewBox="0 0 24 24">
  <path d="M20 4H4c-1.1 0-1.99.9-1.99 2L2 18c0 1.1.9 2 2 2h16c1.1 0 2-.9 2-2V6c0-1.1-.9-2-2-2zm0 4l-8 5-8-5V6l8 5 8-5v2z"/>
</symbol>

<symbol id="icon-menu" viewBox="0 0 24 24">
  <path d="M3 18h18v-2H3v2zm0-5h18v-2H3v2zm0-7v2h18V6H3z"/>
</symbol>

<symbol id="icon-phone" viewBox="0 0 24 24">
  <path d="M6.62 10.79c1.44 2.83 3.76 5.14 6.59 6.59l2.2-2.2c.27-.27.67-.36 1.02-.24 1.12.37 2.33.57 3.57.57.55 0 1 .45 1 1V20c0 .55-.45 1-1 1-9.39 0-17-7.61-17-17 0-.55.45-1 1-1h3.5c.55 0 1 .45 1 1 0 1.25.2 2.45.57 3.57.11.35.03.74-.25 1.02l-2.2 2.2z"/>
</symbol>

<symbol id="icon-search" viewBox="0 0 24 24">
  <path d="M15.5 14h-.79l-.28-.27C15.41 12.59 16 11.11 16 9.5 16 5.91 13.09 3 9.5 3S3 5.91 3 9.5 5.91 16 9.5 16c1.61 0 3.09-.59 4.23-1.57l.27.28v.79l5 4.99L20.49 19l-4.99-5zm-6 0C7.01 14 5 11.99 5 9.5S7.01 5 9.5 5 14 7.01 14 9.5 11.99 14 9.5 14z"/>
</symbol>

<symbol id="icon-share" viewBox="0 0 30 30">
  <path d="M2.1 28.3c.1.1.1.2.2.4s.1.4.2.6c.1.2.2.3.2.4.2.2.3.3.5.3s.3-.1.4-.2c.1-.1.2-.3.2-.5v-.5c0-.2-.1-.3-.1-.4-.1-.9-.1-1.6-.1-2.3 0-1.3.1-2.4.3-3.4.2-1 .5-1.9.8-2.6.3-.7.8-1.4 1.3-1.9s1.1-1 1.8-1.3 1.4-.6 2.2-.8c.9-.2 1.7-.3 2.6-.4.9-.1 1.8-.1 2.9-.1h3.8v4.8c0 .3.1.6.3.8.2.2.5.4.8.4.3 0 .5-.1.8-.4l8.5-9.6c.2-.2.3-.5.3-.8 0-.3-.1-.6-.3-.8L21.2.4c-.3-.3-.5-.4-.8-.4-.3 0-.6.1-.8.3s-.3.5-.3.8V6h-3.8C7.5 6 2.7 8.5.9 13.6c-.6 1.6-.9 3.7-.9 6.2 0 2.1.7 4.9 2.1 8.5z"/>
</symbol>

<symbol id="icon-subscribe" viewBox="0 0 30 30">
  <path d="M1.1 23.6c-.7.7-1 1.6-1.1 2.6 0 1 .3 1.9 1.1 2.6.8.8 1.6 1.2 2.6 1.2s1.9-.4 2.7-1.1c.8-.7 1.1-1.6 1.1-2.6s-.4-1.9-1.1-2.6c-.7-.7-1.6-1.1-2.7-1.1-1.1-.1-1.9.3-2.6 1zm0-22.5C.4 1.9 0 2.7 0 3.7s.4 1.9 1.1 2.6 1.6 1.1 2.7 1.1c5.2 0 9.6 1.8 13.3 5.5s5.5 8.1 5.5 13.3c0 1 .3 1.9 1.1 2.6.7.8 1.6 1.1 2.7 1.1 1 0 1.9-.4 2.7-1.1.7-.7 1.1-1.6 1.1-2.6 0-4.7-1.2-9.1-3.5-13.1s-5.6-7.2-9.6-9.6S8.5 0 3.7 0c-1 0-1.9.4-2.6 1.1zm0 11.3C.4 13.1 0 14 0 15s.4 1.9 1.1 2.6c.7.7 1.6 1.1 2.7 1.1 2 0 3.8.8 5.3 2.2s2.2 3.2 2.2 5.3c0 1 .4 1.9 1.1 2.6.6.9 1.5 1.2 2.6 1.2s2-.4 2.7-1.1c.7-.7 1.1-1.6 1.1-2.6 0-4.1-1.4-7.7-4.4-10.6s-6.5-4.4-10.6-4.4c-1.1 0-2 .4-2.7 1.1z"/>
</symbol>

<symbol id="icon-codepen" viewBox="0 0 1792 1792">
  <path d="M216 1169l603 402v-359l-334-223zm-62-144l193-129-193-129v258zm819 546l603-402-269-180-334 223v359zm-77-493l272-182-272-182-272 182zm-411-275l334-223v-359l-603 402zm960 93l193 129v-258zm-138-93l269-180-603-402v359zm485-180v546q0 41-34 64l-819 546q-21 13-43 13t-43-13l-819-546q-34-23-34-64v-546q0-41 34-64l819-546q21-13 43-13t43 13l819 546q34 23 34 64z"/>
</symbol>

<symbol id="icon-deviantart" viewBox="0 0 1792 1792">
  <path d="M1408 303l-303 582 24 31h279v415h-507l-44 30-142 273-30 30h-301v-303l303-583-24-30h-279v-415h507l44-30 142-273 30-30h301v303z"/>
</symbol>

<symbol id="icon-dribbble" viewBox="0 0 1792 1792">
  <path d="M1152 1500q-42-241-140-498h-2l-2 1q-16 6-43 16.5t-101 49-137 82-131 114.5-103 148l-15-11q184 150 418 150 132 0 256-52zm-185-607q-21-49-53-111-311 93-673 93-1 7-1 21 0 124 44 236.5t124 201.5q50-89 123.5-166.5t142.5-124.5 130.5-81 99.5-48l37-13q4-1 13-3.5t13-4.5zm-107-212q-120-213-244-378-138 65-234 186t-128 272q302 0 606-80zm684 319q-210-60-409-29 87 239 128 469 111-75 185-189.5t96-250.5zm-805-741q-1 0-2 1 1-1 2-1zm590 145q-185-164-433-164-76 0-155 19 131 170 246 382 69-26 130-60.5t96.5-61.5 65.5-57 37.5-40.5zm223 485q-3-232-149-410l-1 1q-9 12-19 24.5t-43.5 44.5-71 60.5-100 65-131.5 64.5q25 53 44 95 2 5 6.5 17t7.5 17q36-5 74.5-7t73.5-2 69 1.5 64 4 56.5 5.5 48 6.5 36.5 6 25 4.5zm112 7q0 209-103 385.5t-279.5 279.5-385.5 103-385.5-103-279.5-279.5-103-385.5 103-385.5 279.5-279.5 385.5-103 385.5 103 279.5 279.5 103 385.5z"/>
</symbol>

<symbol id="icon-etsy" viewBox="0 0 1792 1792">
  <path d="M646 183v655q103 1 191.5-1.5t125.5-5.5l37-3q68-2 90.5-24.5t39.5-94.5l33-142h103l-14 322 7 319h-103l-29-127q-15-68-45-93t-84-26q-87-8-352-8v556q0 78 43.5 115.5t133.5 37.5h357q35 0 59.5-2t55-7.5 54-18 48.5-32 46-50.5 39-73l93-216h89q-6 37-31.5 252t-30.5 276q-146-5-263.5-8t-162.5-4h-672l-376 12v-102l127-25q67-13 91.5-37t25.5-79l8-643q3-402-8-645-2-61-25.5-84t-91.5-36l-127-24v-102l376 12h702q139 0 374-27-6 68-14 194.5t-12 219.5l-5 92h-93l-32-124q-31-121-74-179.5t-113-58.5h-548q-28 0-35.5 8.5t-7.5 30.5z"/>
</symbol>

<symbol id="icon-facebook" viewBox="0 0 30 30">
  <path d="M22 0h-4.8c-2.9 0-6 1.2-6 5.3v4.4H7.9v5.2h3.4V30h6.2V14.8h4.1l.4-5.2h-4.6v-3c0-1.6 1.7-1.5 1.8-1.5H22V0z"/>
</symbol>

<symbol id="icon-github" viewBox="0 0 1792 1792">
  <path d="M896 128q209 0 385.5 103t279.5 279.5 103 385.5q0 251-146.5 451.5t-378.5 277.5q-27 5-40-7t-13-30q0-3 .5-76.5t.5-134.5q0-97-52-142 57-6 102.5-18t94-39 81-66.5 53-105 20.5-150.5q0-119-79-206 37-91-8-204-28-9-81 11t-92 44l-38 24q-93-26-192-26t-192 26q-16-11-42.5-27t-83.5-38.5-85-13.5q-45 113-8 204-79 87-79 206 0 85 20.5 150t52.5 105 80.5 67 94 39 102.5 18q-39 36-49 103-21 10-45 15t-57 5-65.5-21.5-55.5-62.5q-19-32-48.5-52t-49.5-24l-20-3q-21 0-29 4.5t-5 11.5 9 14 13 12l7 5q22 10 43.5 38t31.5 51l10 23q13 38 44 61.5t67 30 69.5 7 55.5-3.5l23-4q0 38 .5 88.5t.5 54.5q0 18-13 30t-40 7q-232-77-378.5-277.5t-146.5-451.5q0-209 103-385.5t279.5-279.5 385.5-103zm-477 1103q3-7-7-12-10-3-13 2-3 7 7 12 9 6 13-2zm31 34q7-5-2-16-10-9-16-3-7 5 2 16 10 10 16 3zm30 45q9-7 0-19-8-13-17-6-9 5 0 18t17 7zm42 42q8-8-4-19-12-12-20-3-9 8 4 19 12 12 20 3zm57 25q3-11-13-16-15-4-19 7t13 15q15 6 19-6zm63 5q0-13-17-11-16 0-16 11 0 13 17 11 16 0 16-11zm58-10q-2-11-18-9-16 3-14 15t18 8 14-14z"/>
</symbol>

<symbol id="icon-gitlab" viewBox="0 0 1792 1792">
  <path d="M104 706l792 1015-868-630q-18-13-25-34.5t0-42.5l101-308zm462 0h660l-330 1015zm-198-612l198 612h-462l198-612q8-23 33-23t33 23zm1320 612l101 308q7 21 0 42.5t-25 34.5l-868 630 792-1015zm0 0h-462l198-612q8-23 33-23t33 23z"/>
</symbol>

<symbol id="icon-linkedin" viewBox="0 0 30 30">
  <path d="M3.2.3C1.3.3 0 1.6 0 3.4c0 1.7 1.3 3.1 3.2 3.1 2 0 3.3-1.4 3.3-3.1C6.5 1.6 5.2.3 3.2.3zm-3 29.4h6.1v-21H.2v21zM22.9 9c-2 0-4-.4-6.1 2.9h-.1l-.1-3.2h-5.4c.1 1.7.1 4.3.1 6.8v14.2h6.1V17.6c0-.6.1-1.1.2-1.5.4-1.1 1.4-2.3 3.1-2.3 2.2 0 3.1 1.7 3.1 4.3v11.7H30V17.3c0-5.9-3-8.3-7.1-8.3z"/>
</symbol>

<symbol id="icon-moon" viewBox="0 0 24 24">
  <path d="M21 12.79A9 9 0 1 1 11.21 3 7 7 0 0 0 21 12.79z"></path>
</symbol>

<symbol id="icon-sun" viewBox="0 0 24 24">
  <circle cx="12" cy="12" r="5"></circle><line x1="12" y1="1" x2="12" y2="3"></line><line x1="12" y1="21" x2="12" y2="23"></line><line x1="4.22" y1="4.22" x2="5.64" y2="5.64"></line><line x1="18.36" y1="18.36" x2="19.78" y2="19.78"></line><line x1="1" y1="12" x2="3" y2="12"></line><line x1="21" y1="12" x2="23" y2="12"></line><line x1="4.22" y1="19.78" x2="5.64" y2="18.36"></line><line x1="18.36" y1="5.64" x2="19.78" y2="4.22"></line>
</symbol>

<symbol id="icon-twitch" viewBox="0 0 1792 1792">
  <path d="M896 434v434h-145v-434h145zm398 0v434h-145v-434h145zm0 760l253-254v-795h-1194v1049h326v217l217-217h398zm398-1194v1013l-434 434h-326l-217 217h-217v-217h-398v-1158l109-289h1483z"/>
</symbol>

<symbol id="icon-twitter" viewBox="0 0 30 30">
  <path d="M30 5.7c-1.1.5-2.3.8-3.5 1 1.3-.8 2.2-2 2.7-3.4-1.2.7-2.5 1.2-3.9 1.5-1.1-1.2-2.7-1.9-4.5-1.9-3.4 0-6.2 2.8-6.2 6.2 0 .5.1 1 .2 1.4-5.1-.4-9.7-2.8-12.7-6.6-.5.9-.8 2-.8 3.1 0 2.1 1.1 4 2.7 5.1-1 0-2-.3-2.8-.8v.1c0 3 2.1 5.5 4.9 6-.5.1-1.1.2-1.6.2-.4 0-.8 0-1.2-.1.8 2.4 3.1 4.2 5.7 4.3-2.1 1.7-4.8 2.6-7.6 2.6-.5 0-1 0-1.5-.1 2.7 1.7 6 2.8 9.4 2.8 11.3 0 17.5-9.4 17.5-17.5v-.8c1.3-.8 2.4-1.9 3.2-3.1z"/>
</symbol>

<symbol id="icon-youtube" viewBox="0 0 30 30">
  <path d="M29.7 8.8s-.1-4.4-4.6-4.5c-4.5-.2-9.6-.3-9.6-.3h-.9s-5.2.1-9.7.3C.3 4.5.3 8.6.3 8.6s-.6 6.6-.1 11.5c.4 3.7 1.2 5.2 5.5 5.4 4.3.2 8.8.5 8.8.5h.9s4.5-.2 8.8-.4c4.3-.2 5.1-1.5 5.5-5.2.6-5 0-11.6 0-11.6zM12 19.2v-8.5l8.1 4.3-8.1 4.2z"/>
</symbol>

</svg>
